<svg width="16" height="16" viewBox="0 0 16 16" fill="none" xmlns="http://www.w3.org/2000/svg">
<path d="M8.0013 0.666992C8.69437 0.666992 9.26392 1.19578 9.32853 1.87192L9.33464 2.00033L9.3343 6.66633L14.0013 6.66699C14.7377 6.66699 15.3346 7.26395 15.3346 8.00033C15.3346 8.69339 14.8058 9.26295 14.1297 9.32756L14.0013 9.33366L9.3343 9.33333L9.33464 14.0003C9.33464 14.7367 8.73768 15.3337 8.0013 15.3337C7.30824 15.3337 6.73868 14.8049 6.67407 14.1287L6.66797 14.0003L6.6673 9.33333L2.0013 9.33366C1.26492 9.33366 0.667969 8.73671 0.667969 8.00033C0.667969 7.30726 1.19676 6.7377 1.87289 6.6731L2.0013 6.66699L6.6673 6.66633L6.66797 2.00033C6.66797 1.26395 7.26492 0.666992 8.0013 0.666992Z" fill="#3C3C43" fill-opacity="0.6"/>
</svg>
