<svg width="18" height="17" viewBox="0 0 18 17" fill="none" xmlns="http://www.w3.org/2000/svg">
<g clip-path="url(#clip0_14_69936)">
<path d="M4.98229 5.3388C4.15842 5.3388 3.48818 4.66856 3.48818 3.84469C3.48818 3.02082 4.15842 2.35059 4.98229 2.35059C5.80616 2.35059 6.4764 3.02082 6.4764 3.84469C6.4764 4.66856 5.80619 5.3388 4.98229 5.3388Z" fill="#FEA832"/>
<path d="M15.441 11.3154C14.8919 11.3154 14.445 10.8684 14.445 10.3193C14.445 9.77019 14.892 9.32324 15.441 9.32324C15.9901 9.32324 16.4371 9.77022 16.4371 10.3193C16.4371 10.8684 15.9902 11.3154 15.441 11.3154Z" fill="#E5741A"/>
<path d="M13.9469 14.3035H13.4489V13.8054C13.4489 13.5301 13.2261 13.3074 12.9508 13.3074C12.6756 13.3074 12.4528 13.5301 12.4528 13.8054V14.3035H11.9547C11.6795 14.3035 11.4567 14.5262 11.4567 14.8015C11.4567 15.0768 11.6795 15.2996 11.9547 15.2996H12.4528V15.7976C12.4528 16.0729 12.6756 16.2957 12.9508 16.2957C13.2261 16.2957 13.4489 16.0729 13.4489 15.7976V15.2996H13.9469C14.2222 15.2996 14.445 15.0768 14.445 14.8015C14.445 14.5262 14.2222 14.3035 13.9469 14.3035Z" fill="#E5741A"/>
<path d="M16.8067 1.39766C16.3559 0.946858 15.729 0.672201 15.0881 0.707364C14.4401 0.749631 13.8344 1.05958 13.4329 1.55959L8.23702 7.8543C8.0821 8.05153 8.0891 8.3403 8.27225 8.52345L9.6809 9.93209C9.86404 10.1152 10.1528 10.1222 10.35 9.96729L16.6447 4.77139C17.1448 4.36987 17.4547 3.76418 17.4969 3.11618C17.5321 2.4753 17.2575 1.84842 16.8067 1.39766ZM15.4192 3.48949C15.222 3.68671 14.9121 3.68671 14.7149 3.48949C14.5176 3.29226 14.5176 2.98238 14.7149 2.78515C14.912 2.58796 15.222 2.58792 15.4192 2.78515C15.6164 2.98241 15.6164 3.29229 15.4192 3.48949Z" fill="#A24F3D"/>
<path d="M16.8067 1.39771L15.4192 2.7852C15.6164 2.98242 15.6164 3.29234 15.4192 3.48954C15.2219 3.68676 14.912 3.68676 14.7148 3.48954L8.97656 9.22783L9.6809 9.93217C9.86404 10.1153 10.1528 10.1223 10.35 9.96737L16.6447 4.77148C17.1448 4.36995 17.4547 3.76426 17.4969 3.11627C17.5321 2.47535 17.2575 1.84847 16.8067 1.39771Z" fill="#8B432D"/>
<path d="M11.4065 13.0664L10.0331 13.1016L5.10275 8.17138L5.13795 6.79793C6.10289 6.15701 7.41996 6.26263 8.27222 7.11489L11.0895 9.9322C11.9418 10.7844 12.0474 12.1014 11.4065 13.0664Z" fill="#B35C4B"/>
<path d="M11.4065 13.0664L10.0331 13.1016L7.56795 10.6364L9.68096 8.52344L11.0896 9.93208C11.9418 10.7843 12.0474 12.1013 11.4065 13.0664Z" fill="#A24F3D"/>
<path d="M10.7374 13.806L8.97656 15.5668C8.0046 16.5388 6.42689 16.5388 5.4549 15.5668L5.44786 15.5598L4.77171 14.8413L4.04626 14.1582L3.33488 13.4467L2.48973 12.5593L1.93328 12.0451L1.22897 11.3408C0.257019 10.3688 0.257019 8.79113 1.22897 7.81915L1.93328 7.11484C2.13051 6.91762 2.44039 6.91762 2.63758 7.11484C2.83481 7.31207 2.83481 7.62195 2.63758 7.81915C2.44039 8.01634 2.44036 8.32626 2.63758 8.52348C2.83481 8.72071 3.14473 8.72068 3.34192 8.52348L4.39841 7.46699C4.68017 7.19934 4.82099 7.00212 5.13795 6.79785L11.4065 13.0664C11.1952 13.3764 10.998 13.5313 10.7374 13.806Z" fill="#FEDB41"/>
<path d="M10.7374 13.8059L8.97656 15.5667C8.00461 16.5387 6.42689 16.5387 5.4549 15.5667L5.44786 15.5597L4.77172 14.8413L4.04626 14.1581L8.27222 9.93213L11.4065 13.0664C11.1952 13.3763 10.998 13.5312 10.7374 13.8059Z" fill="#FEA832"/>
<path d="M6.86358 14.158C6.66891 13.9633 6.35388 13.9633 6.15924 14.158C5.57666 14.7405 4.62884 14.7405 4.04626 14.158L5.44594 15.5576C5.9646 15.4859 6.46567 15.2602 6.86358 14.8623C7.05825 14.6676 7.05825 14.3526 6.86358 14.158Z" fill="#E5741A"/>
<path d="M4.7506 12.0449C4.55593 11.8503 4.2409 11.8503 4.04626 12.0449C3.46368 12.6275 2.51586 12.6275 1.93325 12.0449L3.33292 13.4446C3.85159 13.3729 4.35266 13.1472 4.75056 12.7492C4.94523 12.5546 4.94524 12.2396 4.7506 12.0449Z" fill="#FEA832"/>
</g>
<defs>
<clipPath id="clip0_14_69936">
<rect width="17" height="17" fill="white" transform="translate(0.5)"/>
</clipPath>
</defs>
</svg>
