<svg width="284" height="215" viewBox="0 0 284 215" fill="none" xmlns="http://www.w3.org/2000/svg">
<g filter="url(#filter0_d_27_51148)">
<mask id="path-1-outside-1_27_51148" maskUnits="userSpaceOnUse" x="120" y="115" width="45" height="34" fill="black">
<rect fill="white" x="120" y="115" width="45" height="34"/>
<path d="M125.102 126.707C125.102 125.668 125.254 124.786 125.557 124.062C125.86 123.326 126.244 122.715 126.709 122.228C127.185 121.741 127.704 121.362 128.267 121.092C128.84 120.811 129.392 120.6 129.922 120.459C130.463 120.318 130.95 120.232 131.383 120.199C131.816 120.167 132.135 120.151 132.34 120.151H132.892C133.098 120.151 133.417 120.167 133.85 120.199C134.282 120.232 134.764 120.318 135.294 120.459C135.824 120.6 136.37 120.811 136.933 121.092C137.506 121.362 138.02 121.741 138.475 122.228C138.94 122.715 139.318 123.326 139.611 124.062C139.913 124.786 140.065 125.668 140.065 126.707V136.411C140.065 137.482 139.913 138.391 139.611 139.138C139.318 139.884 138.94 140.506 138.475 141.004C138.02 141.502 137.506 141.896 136.933 142.189C136.37 142.47 135.824 142.681 135.294 142.821C134.764 142.962 134.282 143.049 133.85 143.081C133.417 143.114 133.098 143.13 132.892 143.13H132.34C132.135 143.13 131.816 143.114 131.383 143.081C130.95 143.049 130.463 142.962 129.922 142.821C129.392 142.681 128.84 142.47 128.267 142.189C127.704 141.896 127.185 141.502 126.709 141.004C126.244 140.506 125.86 139.884 125.557 139.138C125.254 138.391 125.102 137.482 125.102 136.411V126.707ZM130.49 137.028C130.512 137.428 130.604 137.78 130.766 138.083C130.907 138.353 131.118 138.597 131.399 138.813C131.691 139.029 132.102 139.138 132.632 139.138C133.152 139.138 133.552 139.029 133.833 138.813C134.115 138.597 134.326 138.353 134.466 138.083C134.618 137.78 134.71 137.428 134.742 137.028V126.447C134.71 126.058 134.618 125.706 134.466 125.392C134.326 125.133 134.115 124.895 133.833 124.678C133.552 124.451 133.152 124.338 132.632 124.338C132.102 124.338 131.691 124.451 131.399 124.678C131.118 124.895 130.907 125.133 130.766 125.392C130.604 125.706 130.512 126.058 130.49 126.447V137.028ZM144.325 123.98C144.325 123.515 144.346 123.061 144.389 122.617C144.433 122.174 144.536 121.779 144.698 121.433C144.86 121.086 145.103 120.811 145.428 120.605C145.753 120.389 146.196 120.28 146.759 120.28C147.332 120.28 147.787 120.389 148.122 120.605C148.457 120.811 148.706 121.086 148.868 121.433C149.042 121.779 149.15 122.174 149.193 122.617C149.236 123.061 149.258 123.515 149.258 123.98V129.823H151.108C151.465 128.892 151.822 127.978 152.179 127.08C152.33 126.701 152.487 126.312 152.65 125.912C152.812 125.501 152.969 125.1 153.12 124.711C153.283 124.321 153.434 123.948 153.575 123.591C153.726 123.223 153.867 122.899 153.997 122.617C154.126 122.314 154.262 122.022 154.402 121.741C154.554 121.46 154.727 121.211 154.922 120.994C155.116 120.778 155.333 120.605 155.571 120.475C155.82 120.345 156.106 120.28 156.431 120.28C156.745 120.28 157.053 120.329 157.356 120.426C157.659 120.524 157.929 120.67 158.167 120.865C158.405 121.059 158.595 121.297 158.735 121.579C158.887 121.86 158.962 122.185 158.962 122.552C158.962 122.834 158.914 123.169 158.816 123.559C158.73 123.937 158.605 124.316 158.443 124.695L155.522 131.608C156.085 131.813 156.582 132.149 157.015 132.614C157.199 132.809 157.377 133.047 157.551 133.328C157.734 133.598 157.897 133.918 158.037 134.285C158.178 134.653 158.292 135.075 158.378 135.551C158.465 136.016 158.508 136.541 158.508 137.125V139.43C158.508 139.549 158.551 139.646 158.638 139.722C158.724 139.798 158.811 139.884 158.898 139.982C159.114 140.23 159.238 140.447 159.271 140.631C159.303 140.815 159.319 140.966 159.319 141.085C159.319 141.475 159.244 141.799 159.092 142.059C158.952 142.318 158.757 142.529 158.508 142.692C158.27 142.854 157.989 142.968 157.664 143.032C157.35 143.097 157.026 143.13 156.69 143.13C156.333 143.13 155.971 143.076 155.603 142.968C155.235 142.859 154.9 142.697 154.597 142.481C154.294 142.254 154.045 141.972 153.851 141.637C153.667 141.301 153.575 140.912 153.575 140.468V137.125C153.575 136.66 153.542 136.227 153.477 135.827C153.412 135.416 153.288 135.064 153.104 134.772C152.92 134.469 152.666 134.237 152.341 134.074C152.017 133.901 151.595 133.815 151.075 133.815H149.258V139.268C149.258 139.744 149.236 140.203 149.193 140.647C149.15 141.09 149.042 141.491 148.868 141.848C148.706 142.194 148.457 142.475 148.122 142.692C147.787 142.897 147.332 143 146.759 143C146.196 143 145.753 142.897 145.428 142.692C145.103 142.475 144.86 142.194 144.698 141.848C144.536 141.491 144.433 141.09 144.389 140.647C144.346 140.203 144.325 139.744 144.325 139.268V123.98Z"/>
</mask>
<path d="M125.102 126.707C125.102 125.668 125.254 124.786 125.557 124.062C125.86 123.326 126.244 122.715 126.709 122.228C127.185 121.741 127.704 121.362 128.267 121.092C128.84 120.811 129.392 120.6 129.922 120.459C130.463 120.318 130.95 120.232 131.383 120.199C131.816 120.167 132.135 120.151 132.34 120.151H132.892C133.098 120.151 133.417 120.167 133.85 120.199C134.282 120.232 134.764 120.318 135.294 120.459C135.824 120.6 136.37 120.811 136.933 121.092C137.506 121.362 138.02 121.741 138.475 122.228C138.94 122.715 139.318 123.326 139.611 124.062C139.913 124.786 140.065 125.668 140.065 126.707V136.411C140.065 137.482 139.913 138.391 139.611 139.138C139.318 139.884 138.94 140.506 138.475 141.004C138.02 141.502 137.506 141.896 136.933 142.189C136.37 142.47 135.824 142.681 135.294 142.821C134.764 142.962 134.282 143.049 133.85 143.081C133.417 143.114 133.098 143.13 132.892 143.13H132.34C132.135 143.13 131.816 143.114 131.383 143.081C130.95 143.049 130.463 142.962 129.922 142.821C129.392 142.681 128.84 142.47 128.267 142.189C127.704 141.896 127.185 141.502 126.709 141.004C126.244 140.506 125.86 139.884 125.557 139.138C125.254 138.391 125.102 137.482 125.102 136.411V126.707ZM130.49 137.028C130.512 137.428 130.604 137.78 130.766 138.083C130.907 138.353 131.118 138.597 131.399 138.813C131.691 139.029 132.102 139.138 132.632 139.138C133.152 139.138 133.552 139.029 133.833 138.813C134.115 138.597 134.326 138.353 134.466 138.083C134.618 137.78 134.71 137.428 134.742 137.028V126.447C134.71 126.058 134.618 125.706 134.466 125.392C134.326 125.133 134.115 124.895 133.833 124.678C133.552 124.451 133.152 124.338 132.632 124.338C132.102 124.338 131.691 124.451 131.399 124.678C131.118 124.895 130.907 125.133 130.766 125.392C130.604 125.706 130.512 126.058 130.49 126.447V137.028ZM144.325 123.98C144.325 123.515 144.346 123.061 144.389 122.617C144.433 122.174 144.536 121.779 144.698 121.433C144.86 121.086 145.103 120.811 145.428 120.605C145.753 120.389 146.196 120.28 146.759 120.28C147.332 120.28 147.787 120.389 148.122 120.605C148.457 120.811 148.706 121.086 148.868 121.433C149.042 121.779 149.15 122.174 149.193 122.617C149.236 123.061 149.258 123.515 149.258 123.98V129.823H151.108C151.465 128.892 151.822 127.978 152.179 127.08C152.33 126.701 152.487 126.312 152.65 125.912C152.812 125.501 152.969 125.1 153.12 124.711C153.283 124.321 153.434 123.948 153.575 123.591C153.726 123.223 153.867 122.899 153.997 122.617C154.126 122.314 154.262 122.022 154.402 121.741C154.554 121.46 154.727 121.211 154.922 120.994C155.116 120.778 155.333 120.605 155.571 120.475C155.82 120.345 156.106 120.28 156.431 120.28C156.745 120.28 157.053 120.329 157.356 120.426C157.659 120.524 157.929 120.67 158.167 120.865C158.405 121.059 158.595 121.297 158.735 121.579C158.887 121.86 158.962 122.185 158.962 122.552C158.962 122.834 158.914 123.169 158.816 123.559C158.73 123.937 158.605 124.316 158.443 124.695L155.522 131.608C156.085 131.813 156.582 132.149 157.015 132.614C157.199 132.809 157.377 133.047 157.551 133.328C157.734 133.598 157.897 133.918 158.037 134.285C158.178 134.653 158.292 135.075 158.378 135.551C158.465 136.016 158.508 136.541 158.508 137.125V139.43C158.508 139.549 158.551 139.646 158.638 139.722C158.724 139.798 158.811 139.884 158.898 139.982C159.114 140.23 159.238 140.447 159.271 140.631C159.303 140.815 159.319 140.966 159.319 141.085C159.319 141.475 159.244 141.799 159.092 142.059C158.952 142.318 158.757 142.529 158.508 142.692C158.27 142.854 157.989 142.968 157.664 143.032C157.35 143.097 157.026 143.13 156.69 143.13C156.333 143.13 155.971 143.076 155.603 142.968C155.235 142.859 154.9 142.697 154.597 142.481C154.294 142.254 154.045 141.972 153.851 141.637C153.667 141.301 153.575 140.912 153.575 140.468V137.125C153.575 136.66 153.542 136.227 153.477 135.827C153.412 135.416 153.288 135.064 153.104 134.772C152.92 134.469 152.666 134.237 152.341 134.074C152.017 133.901 151.595 133.815 151.075 133.815H149.258V139.268C149.258 139.744 149.236 140.203 149.193 140.647C149.15 141.09 149.042 141.491 148.868 141.848C148.706 142.194 148.457 142.475 148.122 142.692C147.787 142.897 147.332 143 146.759 143C146.196 143 145.753 142.897 145.428 142.692C145.103 142.475 144.86 142.194 144.698 141.848C144.536 141.491 144.433 141.09 144.389 140.647C144.346 140.203 144.325 139.744 144.325 139.268V123.98Z" fill="url(#paint0_linear_27_51148)"/>
<path d="M125.557 124.062L130.17 125.99C130.174 125.982 130.177 125.973 130.18 125.965L125.557 124.062ZM126.709 122.228L123.134 118.732C123.121 118.746 123.107 118.76 123.094 118.774L126.709 122.228ZM128.267 121.092L130.433 125.598C130.445 125.592 130.457 125.587 130.469 125.581L128.267 121.092ZM129.922 120.459L128.664 115.62C128.656 115.622 128.648 115.624 128.64 115.626L129.922 120.459ZM136.933 121.092L134.697 125.564C134.731 125.581 134.765 125.598 134.8 125.614L136.933 121.092ZM138.475 122.228L134.819 125.639C134.833 125.654 134.846 125.668 134.86 125.682L138.475 122.228ZM139.611 124.062L134.963 125.907C134.974 125.934 134.986 125.962 134.997 125.99L139.611 124.062ZM139.611 139.138L134.977 137.258C134.97 137.277 134.962 137.296 134.954 137.316L139.611 139.138ZM138.475 141.004L134.822 137.59C134.809 137.604 134.795 137.618 134.782 137.633L138.475 141.004ZM136.933 142.189L139.169 146.661C139.18 146.655 139.191 146.649 139.203 146.644L136.933 142.189ZM129.922 142.821L128.64 147.654C128.648 147.656 128.656 147.659 128.664 147.661L129.922 142.821ZM128.267 142.189L125.963 146.626C125.997 146.644 126.031 146.661 126.065 146.678L128.267 142.189ZM126.709 141.004L123.056 144.418C123.07 144.432 123.083 144.446 123.096 144.46L126.709 141.004ZM130.49 137.028H125.49C125.49 137.118 125.493 137.208 125.498 137.298L130.49 137.028ZM130.766 138.083L135.202 135.776C135.193 135.758 135.183 135.74 135.174 135.722L130.766 138.083ZM131.399 138.813L128.35 142.776C128.374 142.795 128.399 142.813 128.423 142.831L131.399 138.813ZM133.833 138.813L130.785 134.85L133.833 138.813ZM134.466 138.083L138.902 140.39C138.914 140.366 138.926 140.343 138.938 140.319L134.466 138.083ZM134.742 137.028L139.726 137.432C139.737 137.298 139.742 137.163 139.742 137.028H134.742ZM134.742 126.447H139.742C139.742 126.309 139.736 126.17 139.725 126.032L134.742 126.447ZM134.466 125.392L138.969 123.219C138.935 123.149 138.9 123.079 138.863 123.011L134.466 125.392ZM133.833 124.678L130.692 128.568C130.722 128.593 130.753 128.617 130.785 128.641L133.833 124.678ZM131.399 124.678L134.448 128.641C134.455 128.636 134.462 128.631 134.469 128.625L131.399 124.678ZM130.766 125.392L126.37 123.011C126.355 123.039 126.34 123.067 126.325 123.095L130.766 125.392ZM130.49 126.447L125.498 126.17C125.493 126.262 125.49 126.355 125.49 126.447H130.49ZM130.102 126.707C130.102 126.128 130.19 125.941 130.17 125.99L120.944 122.134C120.318 123.632 120.102 125.208 120.102 126.707H130.102ZM130.18 125.965C130.289 125.702 130.359 125.646 130.324 125.682L123.094 118.774C122.129 119.784 121.431 120.949 120.933 122.158L130.18 125.965ZM130.284 125.723C130.339 125.667 130.379 125.635 130.401 125.619C130.413 125.61 130.421 125.605 130.426 125.602C130.43 125.6 130.433 125.598 130.433 125.598L126.101 116.586C124.968 117.13 123.98 117.867 123.134 118.732L130.284 125.723ZM130.469 125.581C130.795 125.421 131.038 125.336 131.204 125.292L128.64 115.626C127.746 115.863 126.886 116.2 126.065 116.603L130.469 125.581ZM131.18 125.298C131.51 125.212 131.693 125.19 131.757 125.185L131.009 115.213C130.207 115.273 129.417 115.424 128.664 115.62L131.18 125.298ZM131.757 125.185C131.946 125.171 132.092 125.162 132.201 125.156C132.316 125.15 132.355 125.151 132.34 125.151V115.151C131.937 115.151 131.461 115.179 131.009 115.213L131.757 125.185ZM132.34 125.151H132.892V115.151H132.34V125.151ZM132.892 125.151C132.877 125.151 132.916 125.15 133.032 125.156C133.14 125.162 133.286 125.171 133.476 125.185L134.223 115.213C133.771 115.179 133.296 115.151 132.892 115.151V125.151ZM133.476 125.185C133.534 125.19 133.705 125.21 134.012 125.292L136.576 115.626C135.822 115.426 135.031 115.274 134.223 115.213L133.476 125.185ZM134.012 125.292C134.168 125.333 134.396 125.413 134.697 125.564L139.169 116.62C138.345 116.208 137.479 115.866 136.576 115.626L134.012 125.292ZM134.8 125.614C134.796 125.612 134.793 125.61 134.789 125.608C134.785 125.606 134.783 125.604 134.782 125.604C134.782 125.604 134.785 125.606 134.79 125.611C134.796 125.616 134.806 125.625 134.819 125.639L142.13 118.816C141.265 117.89 140.241 117.124 139.066 116.57L134.8 125.614ZM134.86 125.682C134.81 125.63 134.868 125.666 134.963 125.907L144.258 122.216C143.769 120.986 143.07 119.799 142.09 118.774L134.86 125.682ZM134.997 125.99C134.977 125.941 135.065 126.128 135.065 126.707H145.065C145.065 125.208 144.85 123.632 144.224 122.134L134.997 125.99ZM135.065 126.707V136.411H145.065V126.707H135.065ZM135.065 136.411C135.065 137.039 134.973 137.27 134.977 137.258L144.244 141.018C144.854 139.513 145.065 137.926 145.065 136.411H135.065ZM134.954 137.316C134.853 137.575 134.786 137.628 134.822 137.59L142.127 144.418C143.094 143.384 143.784 142.193 144.267 140.96L134.954 137.316ZM134.782 137.633C134.714 137.708 134.676 137.727 134.663 137.733L139.203 146.644C140.336 146.066 141.327 145.296 142.167 144.375L134.782 137.633ZM134.697 137.716C134.396 137.867 134.168 137.947 134.012 137.989L136.576 147.654C137.479 147.415 138.345 147.073 139.169 146.661L134.697 137.716ZM134.012 137.989C133.705 138.07 133.534 138.091 133.476 138.095L134.223 148.067C135.031 148.007 135.822 147.854 136.576 147.654L134.012 137.989ZM133.476 138.095C133.286 138.109 133.14 138.119 133.032 138.124C132.916 138.13 132.877 138.13 132.892 138.13V148.13C133.296 148.13 133.771 148.101 134.223 148.067L133.476 138.095ZM132.892 138.13H132.34V148.13H132.892V138.13ZM132.34 138.13C132.355 138.13 132.316 138.13 132.201 138.124C132.092 138.119 131.946 138.109 131.757 138.095L131.009 148.067C131.461 148.101 131.937 148.13 132.34 148.13V138.13ZM131.757 138.095C131.693 138.09 131.51 138.068 131.18 137.982L128.664 147.661C129.417 147.856 130.207 148.007 131.009 148.067L131.757 138.095ZM131.204 137.989C131.038 137.945 130.795 137.859 130.469 137.7L126.065 146.678C126.886 147.08 127.746 147.417 128.64 147.654L131.204 137.989ZM130.571 137.751C130.536 137.733 130.452 137.683 130.322 137.548L123.096 144.46C123.919 145.32 124.873 146.06 125.963 146.626L130.571 137.751ZM130.362 137.59C130.383 137.612 130.304 137.538 130.19 137.258L120.924 141.018C121.416 142.23 122.105 143.4 123.056 144.418L130.362 137.59ZM130.19 137.258C130.195 137.27 130.102 137.039 130.102 136.411H120.102C120.102 137.926 120.313 139.513 120.924 141.018L130.19 137.258ZM130.102 136.411V126.707H120.102V136.411H130.102ZM125.498 137.298C125.552 138.309 125.797 139.396 126.359 140.444L135.174 135.722C135.41 136.164 135.472 136.548 135.483 136.758L125.498 137.298ZM126.33 140.39C126.858 141.405 127.586 142.188 128.35 142.776L134.448 134.85C134.65 135.005 134.956 135.302 135.202 135.776L126.33 140.39ZM128.423 142.831C129.89 143.918 131.502 144.138 132.632 144.138V134.138C132.703 134.138 133.492 134.141 134.375 134.795L128.423 142.831ZM132.632 144.138C133.763 144.138 135.404 143.913 136.882 142.776L130.785 134.85C131.7 134.146 132.541 134.138 132.632 134.138V144.138ZM136.882 142.776C137.647 142.188 138.375 141.405 138.902 140.39L130.03 135.776C130.277 135.302 130.583 135.005 130.785 134.85L136.882 142.776ZM138.938 140.319C139.424 139.348 139.651 138.354 139.726 137.432L129.758 136.624C129.768 136.503 129.811 136.212 129.994 135.847L138.938 140.319ZM139.742 137.028V126.447H129.742V137.028H139.742ZM139.725 126.032C139.648 125.106 139.417 124.147 138.969 123.219L129.963 127.566C129.818 127.265 129.772 127.01 129.759 126.862L139.725 126.032ZM138.863 123.011C138.328 122.024 137.608 121.274 136.882 120.715L130.785 128.641C130.621 128.515 130.323 128.241 130.07 127.774L138.863 123.011ZM136.975 120.789C135.488 119.587 133.809 119.338 132.632 119.338V129.338C132.495 129.338 131.616 129.315 130.692 128.568L136.975 120.789ZM132.632 119.338C131.458 119.338 129.808 119.582 128.329 120.732L134.469 128.625C133.575 129.321 132.747 129.338 132.632 129.338V119.338ZM128.35 120.715C127.624 121.274 126.904 122.024 126.37 123.011L135.163 127.774C134.909 128.241 134.611 128.515 134.448 128.641L128.35 120.715ZM126.325 123.095C125.806 124.098 125.555 125.15 125.498 126.17L135.483 126.725C135.469 126.966 135.402 127.314 135.207 127.689L126.325 123.095ZM125.49 126.447V137.028H135.49V126.447H125.49ZM145.428 120.605L148.103 124.829C148.136 124.808 148.169 124.787 148.202 124.765L145.428 120.605ZM148.122 120.605L145.411 124.806C145.444 124.827 145.476 124.848 145.509 124.868L148.122 120.605ZM148.868 121.433L144.341 123.555C144.359 123.593 144.377 123.631 144.396 123.669L148.868 121.433ZM149.258 129.823H144.258C144.258 132.584 146.497 134.823 149.258 134.823V129.823ZM151.108 129.823V134.823C153.178 134.823 155.034 133.547 155.776 131.614L151.108 129.823ZM152.179 127.08L147.537 125.223L147.533 125.233L152.179 127.08ZM152.65 125.912L157.283 127.79C157.289 127.776 157.295 127.762 157.3 127.747L152.65 125.912ZM153.12 124.711L148.505 122.788C148.49 122.824 148.475 122.861 148.46 122.899L153.12 124.711ZM153.575 123.591L148.951 121.687C148.942 121.711 148.932 121.735 148.923 121.758L153.575 123.591ZM153.997 122.617L158.536 124.713C158.556 124.671 158.574 124.629 158.592 124.587L153.997 122.617ZM154.402 121.741L150 119.37C149.976 119.415 149.953 119.46 149.93 119.505L154.402 121.741ZM155.571 120.475L153.258 116.042C153.231 116.056 153.203 116.071 153.176 116.086L155.571 120.475ZM158.735 121.579L154.263 123.815C154.286 123.86 154.309 123.905 154.333 123.949L158.735 121.579ZM158.816 123.559L153.966 122.346C153.957 122.379 153.95 122.411 153.942 122.444L158.816 123.559ZM158.443 124.695L153.847 122.725C153.844 122.733 153.841 122.741 153.837 122.748L158.443 124.695ZM155.522 131.608L150.916 129.662C150.383 130.923 150.391 132.347 150.937 133.602C151.483 134.858 152.52 135.834 153.806 136.304L155.522 131.608ZM157.015 132.614L153.354 136.019C153.363 136.029 153.371 136.038 153.38 136.047L157.015 132.614ZM157.551 133.328L153.292 135.948C153.332 136.013 153.373 136.077 153.416 136.14L157.551 133.328ZM158.378 135.551L153.459 136.446C153.46 136.452 153.461 136.459 153.463 136.466L158.378 135.551ZM158.638 139.722L161.93 135.959L158.638 139.722ZM158.898 139.982L162.671 136.701C162.659 136.687 162.647 136.673 162.635 136.66L158.898 139.982ZM159.092 142.059L154.773 139.539C154.747 139.585 154.721 139.631 154.696 139.677L159.092 142.059ZM158.508 142.692L155.777 138.504C155.748 138.522 155.72 138.541 155.691 138.561L158.508 142.692ZM157.664 143.032L156.684 138.13C156.673 138.132 156.662 138.134 156.651 138.136L157.664 143.032ZM154.597 142.481L151.597 146.481C151.628 146.504 151.659 146.527 151.691 146.549L154.597 142.481ZM153.851 141.637L149.466 144.041C149.486 144.077 149.506 144.112 149.527 144.148L153.851 141.637ZM153.477 135.827L148.538 136.607C148.54 136.614 148.541 136.621 148.542 136.627L153.477 135.827ZM153.104 134.772L148.83 137.367C148.844 137.39 148.858 137.413 148.873 137.436L153.104 134.772ZM152.341 134.074L149.988 138.486C150.027 138.507 150.066 138.527 150.105 138.547L152.341 134.074ZM149.258 133.815V128.815C146.497 128.815 144.258 131.053 144.258 133.815H149.258ZM148.868 141.848L144.369 139.666C144.36 139.686 144.35 139.706 144.341 139.726L148.868 141.848ZM148.122 142.692L150.735 146.955C150.768 146.935 150.8 146.914 150.833 146.893L148.122 142.692ZM145.428 142.692L142.655 146.852C142.687 146.874 142.72 146.895 142.753 146.916L145.428 142.692ZM144.698 141.848L140.146 143.917C140.154 143.935 140.162 143.952 140.17 143.97L144.698 141.848ZM144.389 140.647L139.413 141.132L144.389 140.647ZM149.325 123.98C149.325 123.67 149.339 123.378 149.366 123.103L139.413 122.132C139.353 122.744 139.325 123.36 139.325 123.98H149.325ZM149.366 123.103C149.363 123.134 149.341 123.307 149.225 123.555L140.17 119.31C139.73 120.25 139.503 121.213 139.413 122.132L149.366 123.103ZM149.225 123.555C148.981 124.076 148.58 124.527 148.103 124.829L142.753 116.381C141.627 117.094 140.739 118.097 140.17 119.31L149.225 123.555ZM148.202 124.765C147.416 125.289 146.768 125.28 146.759 125.28V115.28C145.625 115.28 144.089 115.488 142.655 116.445L148.202 124.765ZM146.759 125.28C146.74 125.28 146.598 125.28 146.372 125.226C146.139 125.17 145.793 125.053 145.411 124.806L150.833 116.404C149.409 115.485 147.895 115.28 146.759 115.28V125.28ZM145.509 124.868C145.036 124.578 144.606 124.121 144.341 123.555L153.396 119.31C152.806 118.052 151.878 117.043 150.735 116.342L145.509 124.868ZM144.396 123.669C144.257 123.391 144.224 123.178 144.217 123.103L154.169 122.132C154.076 121.17 153.826 120.167 153.341 119.197L144.396 123.669ZM144.217 123.103C144.244 123.378 144.258 123.67 144.258 123.98H154.258C154.258 123.36 154.229 122.744 154.169 122.132L144.217 123.103ZM144.258 123.98V129.823H154.258V123.98H144.258ZM149.258 134.823H151.108V124.823H149.258V134.823ZM155.776 131.614C156.126 130.702 156.476 129.806 156.825 128.927L147.533 125.233C147.168 126.15 146.804 127.083 146.44 128.031L155.776 131.614ZM156.821 128.937C156.97 128.566 157.124 128.184 157.283 127.79L148.016 124.033C147.851 124.44 147.691 124.837 147.537 125.223L156.821 128.937ZM157.3 127.747C157.466 127.329 157.626 126.921 157.78 126.523L148.46 122.899C148.312 123.28 148.158 123.672 147.999 124.076L157.3 127.747ZM157.736 126.634C157.909 126.217 158.073 125.814 158.227 125.424L148.923 121.758C148.795 122.082 148.656 122.425 148.505 122.788L157.736 126.634ZM158.198 125.495C158.33 125.174 158.443 124.916 158.536 124.713L149.457 120.522C149.291 120.881 149.122 121.272 148.951 121.687L158.198 125.495ZM158.592 124.587C158.685 124.37 158.78 124.167 158.874 123.977L149.93 119.505C149.744 119.878 149.567 120.259 149.401 120.648L158.592 124.587ZM158.805 124.111C158.785 124.147 158.734 124.232 158.638 124.339L151.205 117.65C150.719 118.189 150.322 118.772 150 119.37L158.805 124.111ZM158.638 124.339C158.482 124.512 158.259 124.704 157.965 124.865L153.176 116.086C152.406 116.506 151.75 117.044 151.205 117.65L158.638 124.339ZM157.884 124.908C157.314 125.205 156.785 125.28 156.431 125.28V115.28C155.427 115.28 154.325 115.485 153.258 116.042L157.884 124.908ZM156.431 125.28C156.218 125.28 156.01 125.246 155.826 125.187L158.886 115.666C158.096 115.412 157.271 115.28 156.431 115.28V125.28ZM155.826 125.187C155.553 125.099 155.265 124.95 155.001 124.734L161.333 116.995C160.594 116.39 159.764 115.949 158.886 115.666L155.826 125.187ZM155.001 124.734C154.681 124.472 154.43 124.149 154.263 123.815L163.207 119.343C162.759 118.445 162.13 117.646 161.333 116.995L155.001 124.734ZM154.333 123.949C154.036 123.398 153.962 122.886 153.962 122.552H163.962C163.962 121.483 163.737 120.322 163.138 119.208L154.333 123.949ZM153.962 122.552C153.962 122.41 153.974 122.32 153.978 122.297C153.981 122.271 153.981 122.285 153.966 122.346L163.667 124.771C163.825 124.139 163.962 123.375 163.962 122.552H153.962ZM153.942 122.444C153.926 122.513 153.898 122.606 153.847 122.725L163.039 126.664C163.312 126.026 163.533 125.361 163.691 124.673L153.942 122.444ZM153.837 122.748L150.916 129.662L160.128 133.554L163.049 126.641L153.837 122.748ZM153.806 136.304C153.706 136.268 153.609 136.218 153.523 136.16C153.438 136.102 153.382 136.05 153.354 136.019L160.676 129.208C159.739 128.202 158.587 127.404 157.238 126.911L153.806 136.304ZM153.38 136.047C153.329 135.993 153.299 135.954 153.287 135.938C153.275 135.923 153.277 135.924 153.292 135.948L161.809 130.707C161.496 130.199 161.116 129.674 160.65 129.181L153.38 136.047ZM153.416 136.14C153.379 136.084 153.359 136.048 153.353 136.036C153.348 136.025 153.353 136.035 153.367 136.071L162.708 132.5C162.456 131.841 162.126 131.164 161.685 130.516L153.416 136.14ZM153.367 136.071C153.376 136.094 153.416 136.208 153.459 136.446L163.298 134.657C163.168 133.943 162.98 133.213 162.708 132.5L153.367 136.071ZM153.463 136.466C153.482 136.569 153.508 136.78 153.508 137.125H163.508C163.508 136.303 163.448 135.464 163.294 134.637L153.463 136.466ZM153.508 137.125V139.43H163.508V137.125H153.508ZM153.508 139.43C153.508 140.933 154.131 142.423 155.345 143.485L161.93 135.959C162.389 136.361 162.814 136.895 163.11 137.561C163.404 138.223 163.508 138.872 163.508 139.43H153.508ZM155.345 143.485C155.256 143.406 155.195 143.342 155.16 143.303L162.635 136.66C162.427 136.426 162.193 136.189 161.93 135.959L155.345 143.485ZM155.124 143.262C155.084 143.215 154.959 143.068 154.819 142.823C154.683 142.587 154.459 142.135 154.347 141.5L164.195 139.762C163.925 138.235 163.087 137.179 162.671 136.701L155.124 143.262ZM154.347 141.5C154.348 141.504 154.342 141.473 154.336 141.415C154.33 141.36 154.319 141.245 154.319 141.085H164.319C164.319 140.559 164.253 140.091 164.195 139.762L154.347 141.5ZM154.319 141.085C154.319 140.845 154.365 140.239 154.773 139.539L163.411 144.578C164.122 143.36 164.319 142.104 164.319 141.085H154.319ZM154.696 139.677C154.954 139.201 155.333 138.793 155.777 138.504L161.239 146.88C162.18 146.266 162.949 145.436 163.489 144.44L154.696 139.677ZM155.691 138.561C156.084 138.293 156.448 138.177 156.684 138.13L158.645 147.935C159.53 147.758 160.456 147.415 161.325 146.823L155.691 138.561ZM156.651 138.136C156.668 138.133 156.68 138.131 156.688 138.13C156.696 138.13 156.697 138.13 156.69 138.13V148.13C157.35 148.13 158.015 148.066 158.677 147.929L156.651 138.136ZM156.69 138.13C156.845 138.13 156.957 138.154 157.014 138.171L154.192 147.764C154.985 147.997 155.822 148.13 156.69 148.13V138.13ZM157.014 138.171C157.166 138.215 157.338 138.294 157.503 138.412L151.691 146.549C152.462 147.1 153.305 147.503 154.192 147.764L157.014 138.171ZM157.597 138.481C157.844 138.666 158.041 138.896 158.174 139.126L149.527 144.148C150.05 145.049 150.744 145.841 151.597 146.481L157.597 138.481ZM158.235 139.233C158.515 139.744 158.575 140.207 158.575 140.468H148.575C148.575 141.617 148.818 142.859 149.466 144.041L158.235 139.233ZM158.575 140.468V137.125H148.575V140.468H158.575ZM158.575 137.125C158.575 136.43 158.526 135.727 158.413 135.027L148.542 136.627C148.558 136.728 148.575 136.89 148.575 137.125H158.575ZM158.416 135.047C158.267 134.101 157.947 133.079 157.335 132.108L148.873 137.436C148.629 137.05 148.558 136.731 148.538 136.607L158.416 135.047ZM157.378 132.177C156.693 131.049 155.723 130.175 154.577 129.602L150.105 138.547C149.609 138.298 149.147 137.89 148.83 137.367L157.378 132.177ZM154.694 129.663C153.409 128.977 152.097 128.815 151.075 128.815V138.815C151.064 138.815 150.956 138.814 150.777 138.778C150.595 138.741 150.315 138.66 149.988 138.486L154.694 129.663ZM151.075 128.815H149.258V138.815H151.075V128.815ZM144.258 133.815V139.267H154.258V133.815H144.258ZM144.258 139.267C144.258 139.592 144.243 139.89 144.217 140.161L154.169 141.132C154.229 140.517 154.258 139.895 154.258 139.267H144.258ZM144.217 140.161C144.224 140.088 144.254 139.903 144.369 139.666L153.368 144.029C153.829 143.078 154.076 142.093 154.169 141.132L144.217 140.161ZM144.341 139.726C144.595 139.184 144.994 138.759 145.411 138.49L150.833 146.893C151.92 146.191 152.817 145.204 153.396 143.97L144.341 139.726ZM145.509 138.429C145.885 138.199 146.216 138.094 146.427 138.046C146.633 137.999 146.756 138 146.759 138V148C147.857 148 149.332 147.814 150.735 146.955L145.509 138.429ZM146.759 138C146.772 138 146.91 138 147.133 138.052C147.36 138.105 147.711 138.219 148.103 138.468L142.753 146.916C144.167 147.812 145.663 148 146.759 148V138ZM148.202 138.531C148.621 138.811 148.992 139.228 149.225 139.726L140.17 143.97C140.728 145.16 141.586 146.14 142.655 146.852L148.202 138.531ZM149.25 139.779C149.344 139.986 149.363 140.131 149.366 140.161L139.413 141.132C139.503 142.05 139.727 142.996 140.146 143.917L149.25 139.779ZM149.366 140.161C149.339 139.89 149.325 139.592 149.325 139.267H139.325C139.325 139.895 139.353 140.517 139.413 141.132L149.366 140.161ZM149.325 139.267V123.98H139.325V139.267H149.325Z" fill="#FEE67C" mask="url(#path-1-outside-1_27_51148)"/>
<path d="M125.557 124.062L130.17 125.99C130.174 125.982 130.177 125.973 130.18 125.965L125.557 124.062ZM126.709 122.228L123.134 118.732C123.121 118.746 123.107 118.76 123.094 118.774L126.709 122.228ZM128.267 121.092L130.433 125.598C130.445 125.592 130.457 125.587 130.469 125.581L128.267 121.092ZM129.922 120.459L128.664 115.62C128.656 115.622 128.648 115.624 128.64 115.626L129.922 120.459ZM136.933 121.092L134.697 125.564C134.731 125.581 134.765 125.598 134.8 125.614L136.933 121.092ZM138.475 122.228L134.819 125.639C134.833 125.654 134.846 125.668 134.86 125.682L138.475 122.228ZM139.611 124.062L134.963 125.907C134.974 125.934 134.986 125.962 134.997 125.99L139.611 124.062ZM139.611 139.138L134.977 137.258C134.97 137.277 134.962 137.296 134.954 137.316L139.611 139.138ZM138.475 141.004L134.822 137.59C134.809 137.604 134.795 137.618 134.782 137.633L138.475 141.004ZM136.933 142.189L139.169 146.661C139.18 146.655 139.191 146.649 139.203 146.644L136.933 142.189ZM129.922 142.821L128.64 147.654C128.648 147.656 128.656 147.659 128.664 147.661L129.922 142.821ZM128.267 142.189L125.963 146.626C125.997 146.644 126.031 146.661 126.065 146.678L128.267 142.189ZM126.709 141.004L123.056 144.418C123.07 144.432 123.083 144.446 123.096 144.46L126.709 141.004ZM130.49 137.028H125.49C125.49 137.118 125.493 137.208 125.498 137.298L130.49 137.028ZM130.766 138.083L135.202 135.776C135.193 135.758 135.183 135.74 135.174 135.722L130.766 138.083ZM131.399 138.813L128.35 142.776C128.374 142.795 128.399 142.813 128.423 142.831L131.399 138.813ZM133.833 138.813L130.785 134.85L133.833 138.813ZM134.466 138.083L138.902 140.39C138.914 140.366 138.926 140.343 138.938 140.319L134.466 138.083ZM134.742 137.028L139.726 137.432C139.737 137.298 139.742 137.163 139.742 137.028H134.742ZM134.742 126.447H139.742C139.742 126.309 139.736 126.17 139.725 126.032L134.742 126.447ZM134.466 125.392L138.969 123.219C138.935 123.149 138.9 123.079 138.863 123.011L134.466 125.392ZM133.833 124.678L130.692 128.568C130.722 128.593 130.753 128.617 130.785 128.641L133.833 124.678ZM131.399 124.678L134.448 128.641C134.455 128.636 134.462 128.631 134.469 128.625L131.399 124.678ZM130.766 125.392L126.37 123.011C126.355 123.039 126.34 123.067 126.325 123.095L130.766 125.392ZM130.49 126.447L125.498 126.17C125.493 126.262 125.49 126.355 125.49 126.447H130.49ZM130.102 126.707C130.102 126.128 130.19 125.941 130.17 125.99L120.944 122.134C120.318 123.632 120.102 125.208 120.102 126.707H130.102ZM130.18 125.965C130.289 125.702 130.359 125.646 130.324 125.682L123.094 118.774C122.129 119.784 121.431 120.949 120.933 122.158L130.18 125.965ZM130.284 125.723C130.339 125.667 130.379 125.635 130.401 125.619C130.413 125.61 130.421 125.605 130.426 125.602C130.43 125.6 130.433 125.598 130.433 125.598L126.101 116.586C124.968 117.13 123.98 117.867 123.134 118.732L130.284 125.723ZM130.469 125.581C130.795 125.421 131.038 125.336 131.204 125.292L128.64 115.626C127.746 115.863 126.886 116.2 126.065 116.603L130.469 125.581ZM131.18 125.298C131.51 125.212 131.693 125.19 131.757 125.185L131.009 115.213C130.207 115.273 129.417 115.424 128.664 115.62L131.18 125.298ZM131.757 125.185C131.946 125.171 132.092 125.162 132.201 125.156C132.316 125.15 132.355 125.151 132.34 125.151V115.151C131.937 115.151 131.461 115.179 131.009 115.213L131.757 125.185ZM132.34 125.151H132.892V115.151H132.34V125.151ZM132.892 125.151C132.877 125.151 132.916 125.15 133.032 125.156C133.14 125.162 133.286 125.171 133.476 125.185L134.223 115.213C133.771 115.179 133.296 115.151 132.892 115.151V125.151ZM133.476 125.185C133.534 125.19 133.705 125.21 134.012 125.292L136.576 115.626C135.822 115.426 135.031 115.274 134.223 115.213L133.476 125.185ZM134.012 125.292C134.168 125.333 134.396 125.413 134.697 125.564L139.169 116.62C138.345 116.208 137.479 115.866 136.576 115.626L134.012 125.292ZM134.8 125.614C134.796 125.612 134.793 125.61 134.789 125.608C134.785 125.606 134.783 125.604 134.782 125.604C134.782 125.604 134.785 125.606 134.79 125.611C134.796 125.616 134.806 125.625 134.819 125.639L142.13 118.816C141.265 117.89 140.241 117.124 139.066 116.57L134.8 125.614ZM134.86 125.682C134.81 125.63 134.868 125.666 134.963 125.907L144.258 122.216C143.769 120.986 143.07 119.799 142.09 118.774L134.86 125.682ZM134.997 125.99C134.977 125.941 135.065 126.128 135.065 126.707H145.065C145.065 125.208 144.85 123.632 144.224 122.134L134.997 125.99ZM135.065 126.707V136.411H145.065V126.707H135.065ZM135.065 136.411C135.065 137.039 134.973 137.27 134.977 137.258L144.244 141.018C144.854 139.513 145.065 137.926 145.065 136.411H135.065ZM134.954 137.316C134.853 137.575 134.786 137.628 134.822 137.59L142.127 144.418C143.094 143.384 143.784 142.193 144.267 140.96L134.954 137.316ZM134.782 137.633C134.714 137.708 134.676 137.727 134.663 137.733L139.203 146.644C140.336 146.066 141.327 145.296 142.167 144.375L134.782 137.633ZM134.697 137.716C134.396 137.867 134.168 137.947 134.012 137.989L136.576 147.654C137.479 147.415 138.345 147.073 139.169 146.661L134.697 137.716ZM134.012 137.989C133.705 138.07 133.534 138.091 133.476 138.095L134.223 148.067C135.031 148.007 135.822 147.854 136.576 147.654L134.012 137.989ZM133.476 138.095C133.286 138.109 133.14 138.119 133.032 138.124C132.916 138.13 132.877 138.13 132.892 138.13V148.13C133.296 148.13 133.771 148.101 134.223 148.067L133.476 138.095ZM132.892 138.13H132.34V148.13H132.892V138.13ZM132.34 138.13C132.355 138.13 132.316 138.13 132.201 138.124C132.092 138.119 131.946 138.109 131.757 138.095L131.009 148.067C131.461 148.101 131.937 148.13 132.34 148.13V138.13ZM131.757 138.095C131.693 138.09 131.51 138.068 131.18 137.982L128.664 147.661C129.417 147.856 130.207 148.007 131.009 148.067L131.757 138.095ZM131.204 137.989C131.038 137.945 130.795 137.859 130.469 137.7L126.065 146.678C126.886 147.08 127.746 147.417 128.64 147.654L131.204 137.989ZM130.571 137.751C130.536 137.733 130.452 137.683 130.322 137.548L123.096 144.46C123.919 145.32 124.873 146.06 125.963 146.626L130.571 137.751ZM130.362 137.59C130.383 137.612 130.304 137.538 130.19 137.258L120.924 141.018C121.416 142.23 122.105 143.4 123.056 144.418L130.362 137.59ZM130.19 137.258C130.195 137.27 130.102 137.039 130.102 136.411H120.102C120.102 137.926 120.313 139.513 120.924 141.018L130.19 137.258ZM130.102 136.411V126.707H120.102V136.411H130.102ZM125.498 137.298C125.552 138.309 125.797 139.396 126.359 140.444L135.174 135.722C135.41 136.164 135.472 136.548 135.483 136.758L125.498 137.298ZM126.33 140.39C126.858 141.405 127.586 142.188 128.35 142.776L134.448 134.85C134.65 135.005 134.956 135.302 135.202 135.776L126.33 140.39ZM128.423 142.831C129.89 143.918 131.502 144.138 132.632 144.138V134.138C132.703 134.138 133.492 134.141 134.375 134.795L128.423 142.831ZM132.632 144.138C133.763 144.138 135.404 143.913 136.882 142.776L130.785 134.85C131.7 134.146 132.541 134.138 132.632 134.138V144.138ZM136.882 142.776C137.647 142.188 138.375 141.405 138.902 140.39L130.03 135.776C130.277 135.302 130.583 135.005 130.785 134.85L136.882 142.776ZM138.938 140.319C139.424 139.348 139.651 138.354 139.726 137.432L129.758 136.624C129.768 136.503 129.811 136.212 129.994 135.847L138.938 140.319ZM139.742 137.028V126.447H129.742V137.028H139.742ZM139.725 126.032C139.648 125.106 139.417 124.147 138.969 123.219L129.963 127.566C129.818 127.265 129.772 127.01 129.759 126.862L139.725 126.032ZM138.863 123.011C138.328 122.024 137.608 121.274 136.882 120.715L130.785 128.641C130.621 128.515 130.323 128.241 130.07 127.774L138.863 123.011ZM136.975 120.789C135.488 119.587 133.809 119.338 132.632 119.338V129.338C132.495 129.338 131.616 129.315 130.692 128.568L136.975 120.789ZM132.632 119.338C131.458 119.338 129.808 119.582 128.329 120.732L134.469 128.625C133.575 129.321 132.747 129.338 132.632 129.338V119.338ZM128.35 120.715C127.624 121.274 126.904 122.024 126.37 123.011L135.163 127.774C134.909 128.241 134.611 128.515 134.448 128.641L128.35 120.715ZM126.325 123.095C125.806 124.098 125.555 125.15 125.498 126.17L135.483 126.725C135.469 126.966 135.402 127.314 135.207 127.689L126.325 123.095ZM125.49 126.447V137.028H135.49V126.447H125.49ZM145.428 120.605L148.103 124.829C148.136 124.808 148.169 124.787 148.202 124.765L145.428 120.605ZM148.122 120.605L145.411 124.806C145.444 124.827 145.476 124.848 145.509 124.868L148.122 120.605ZM148.868 121.433L144.341 123.555C144.359 123.593 144.377 123.631 144.396 123.669L148.868 121.433ZM149.258 129.823H144.258C144.258 132.584 146.497 134.823 149.258 134.823V129.823ZM151.108 129.823V134.823C153.178 134.823 155.034 133.547 155.776 131.614L151.108 129.823ZM152.179 127.08L147.537 125.223L147.533 125.233L152.179 127.08ZM152.65 125.912L157.283 127.79C157.289 127.776 157.295 127.762 157.3 127.747L152.65 125.912ZM153.12 124.711L148.505 122.788C148.49 122.824 148.475 122.861 148.46 122.899L153.12 124.711ZM153.575 123.591L148.951 121.687C148.942 121.711 148.932 121.735 148.923 121.758L153.575 123.591ZM153.997 122.617L158.536 124.713C158.556 124.671 158.574 124.629 158.592 124.587L153.997 122.617ZM154.402 121.741L150 119.37C149.976 119.415 149.953 119.46 149.93 119.505L154.402 121.741ZM155.571 120.475L153.258 116.042C153.231 116.056 153.203 116.071 153.176 116.086L155.571 120.475ZM158.735 121.579L154.263 123.815C154.286 123.86 154.309 123.905 154.333 123.949L158.735 121.579ZM158.816 123.559L153.966 122.346C153.957 122.379 153.95 122.411 153.942 122.444L158.816 123.559ZM158.443 124.695L153.847 122.725C153.844 122.733 153.841 122.741 153.837 122.748L158.443 124.695ZM155.522 131.608L150.916 129.662C150.383 130.923 150.391 132.347 150.937 133.602C151.483 134.858 152.52 135.834 153.806 136.304L155.522 131.608ZM157.015 132.614L153.354 136.019C153.363 136.029 153.371 136.038 153.38 136.047L157.015 132.614ZM157.551 133.328L153.292 135.948C153.332 136.013 153.373 136.077 153.416 136.14L157.551 133.328ZM158.378 135.551L153.459 136.446C153.46 136.452 153.461 136.459 153.463 136.466L158.378 135.551ZM158.638 139.722L161.93 135.959L158.638 139.722ZM158.898 139.982L162.671 136.701C162.659 136.687 162.647 136.673 162.635 136.66L158.898 139.982ZM159.092 142.059L154.773 139.539C154.747 139.585 154.721 139.631 154.696 139.677L159.092 142.059ZM158.508 142.692L155.777 138.504C155.748 138.522 155.72 138.541 155.691 138.561L158.508 142.692ZM157.664 143.032L156.684 138.13C156.673 138.132 156.662 138.134 156.651 138.136L157.664 143.032ZM154.597 142.481L151.597 146.481C151.628 146.504 151.659 146.527 151.691 146.549L154.597 142.481ZM153.851 141.637L149.466 144.041C149.486 144.077 149.506 144.112 149.527 144.148L153.851 141.637ZM153.477 135.827L148.538 136.607C148.54 136.614 148.541 136.621 148.542 136.627L153.477 135.827ZM153.104 134.772L148.83 137.367C148.844 137.39 148.858 137.413 148.873 137.436L153.104 134.772ZM152.341 134.074L149.988 138.486C150.027 138.507 150.066 138.527 150.105 138.547L152.341 134.074ZM149.258 133.815V128.815C146.497 128.815 144.258 131.053 144.258 133.815H149.258ZM148.868 141.848L144.369 139.666C144.36 139.686 144.35 139.706 144.341 139.726L148.868 141.848ZM148.122 142.692L150.735 146.955C150.768 146.935 150.8 146.914 150.833 146.893L148.122 142.692ZM145.428 142.692L142.655 146.852C142.687 146.874 142.72 146.895 142.753 146.916L145.428 142.692ZM144.698 141.848L140.146 143.917C140.154 143.935 140.162 143.952 140.17 143.97L144.698 141.848ZM144.389 140.647L139.413 141.132L144.389 140.647ZM149.325 123.98C149.325 123.67 149.339 123.378 149.366 123.103L139.413 122.132C139.353 122.744 139.325 123.36 139.325 123.98H149.325ZM149.366 123.103C149.363 123.134 149.341 123.307 149.225 123.555L140.17 119.31C139.73 120.25 139.503 121.213 139.413 122.132L149.366 123.103ZM149.225 123.555C148.981 124.076 148.58 124.527 148.103 124.829L142.753 116.381C141.627 117.094 140.739 118.097 140.17 119.31L149.225 123.555ZM148.202 124.765C147.416 125.289 146.768 125.28 146.759 125.28V115.28C145.625 115.28 144.089 115.488 142.655 116.445L148.202 124.765ZM146.759 125.28C146.74 125.28 146.598 125.28 146.372 125.226C146.139 125.17 145.793 125.053 145.411 124.806L150.833 116.404C149.409 115.485 147.895 115.28 146.759 115.28V125.28ZM145.509 124.868C145.036 124.578 144.606 124.121 144.341 123.555L153.396 119.31C152.806 118.052 151.878 117.043 150.735 116.342L145.509 124.868ZM144.396 123.669C144.257 123.391 144.224 123.178 144.217 123.103L154.169 122.132C154.076 121.17 153.826 120.167 153.341 119.197L144.396 123.669ZM144.217 123.103C144.244 123.378 144.258 123.67 144.258 123.98H154.258C154.258 123.36 154.229 122.744 154.169 122.132L144.217 123.103ZM144.258 123.98V129.823H154.258V123.98H144.258ZM149.258 134.823H151.108V124.823H149.258V134.823ZM155.776 131.614C156.126 130.702 156.476 129.806 156.825 128.927L147.533 125.233C147.168 126.15 146.804 127.083 146.44 128.031L155.776 131.614ZM156.821 128.937C156.97 128.566 157.124 128.184 157.283 127.79L148.016 124.033C147.851 124.44 147.691 124.837 147.537 125.223L156.821 128.937ZM157.3 127.747C157.466 127.329 157.626 126.921 157.78 126.523L148.46 122.899C148.312 123.28 148.158 123.672 147.999 124.076L157.3 127.747ZM157.736 126.634C157.909 126.217 158.073 125.814 158.227 125.424L148.923 121.758C148.795 122.082 148.656 122.425 148.505 122.788L157.736 126.634ZM158.198 125.495C158.33 125.174 158.443 124.916 158.536 124.713L149.457 120.522C149.291 120.881 149.122 121.272 148.951 121.687L158.198 125.495ZM158.592 124.587C158.685 124.37 158.78 124.167 158.874 123.977L149.93 119.505C149.744 119.878 149.567 120.259 149.401 120.648L158.592 124.587ZM158.805 124.111C158.785 124.147 158.734 124.232 158.638 124.339L151.205 117.65C150.719 118.189 150.322 118.772 150 119.37L158.805 124.111ZM158.638 124.339C158.482 124.512 158.259 124.704 157.965 124.865L153.176 116.086C152.406 116.506 151.75 117.044 151.205 117.65L158.638 124.339ZM157.884 124.908C157.314 125.205 156.785 125.28 156.431 125.28V115.28C155.427 115.28 154.325 115.485 153.258 116.042L157.884 124.908ZM156.431 125.28C156.218 125.28 156.01 125.246 155.826 125.187L158.886 115.666C158.096 115.412 157.271 115.28 156.431 115.28V125.28ZM155.826 125.187C155.553 125.099 155.265 124.95 155.001 124.734L161.333 116.995C160.594 116.39 159.764 115.949 158.886 115.666L155.826 125.187ZM155.001 124.734C154.681 124.472 154.43 124.149 154.263 123.815L163.207 119.343C162.759 118.445 162.13 117.646 161.333 116.995L155.001 124.734ZM154.333 123.949C154.036 123.398 153.962 122.886 153.962 122.552H163.962C163.962 121.483 163.737 120.322 163.138 119.208L154.333 123.949ZM153.962 122.552C153.962 122.41 153.974 122.32 153.978 122.297C153.981 122.271 153.981 122.285 153.966 122.346L163.667 124.771C163.825 124.139 163.962 123.375 163.962 122.552H153.962ZM153.942 122.444C153.926 122.513 153.898 122.606 153.847 122.725L163.039 126.664C163.312 126.026 163.533 125.361 163.691 124.673L153.942 122.444ZM153.837 122.748L150.916 129.662L160.128 133.554L163.049 126.641L153.837 122.748ZM153.806 136.304C153.706 136.268 153.609 136.218 153.523 136.16C153.438 136.102 153.382 136.05 153.354 136.019L160.676 129.208C159.739 128.202 158.587 127.404 157.238 126.911L153.806 136.304ZM153.38 136.047C153.329 135.993 153.299 135.954 153.287 135.938C153.275 135.923 153.277 135.924 153.292 135.948L161.809 130.707C161.496 130.199 161.116 129.674 160.65 129.181L153.38 136.047ZM153.416 136.14C153.379 136.084 153.359 136.048 153.353 136.036C153.348 136.025 153.353 136.035 153.367 136.071L162.708 132.5C162.456 131.841 162.126 131.164 161.685 130.516L153.416 136.14ZM153.367 136.071C153.376 136.094 153.416 136.208 153.459 136.446L163.298 134.657C163.168 133.943 162.98 133.213 162.708 132.5L153.367 136.071ZM153.463 136.466C153.482 136.569 153.508 136.78 153.508 137.125H163.508C163.508 136.303 163.448 135.464 163.294 134.637L153.463 136.466ZM153.508 137.125V139.43H163.508V137.125H153.508ZM153.508 139.43C153.508 140.933 154.131 142.423 155.345 143.485L161.93 135.959C162.389 136.361 162.814 136.895 163.11 137.561C163.404 138.223 163.508 138.872 163.508 139.43H153.508ZM155.345 143.485C155.256 143.406 155.195 143.342 155.16 143.303L162.635 136.66C162.427 136.426 162.193 136.189 161.93 135.959L155.345 143.485ZM155.124 143.262C155.084 143.215 154.959 143.068 154.819 142.823C154.683 142.587 154.459 142.135 154.347 141.5L164.195 139.762C163.925 138.235 163.087 137.179 162.671 136.701L155.124 143.262ZM154.347 141.5C154.348 141.504 154.342 141.473 154.336 141.415C154.33 141.36 154.319 141.245 154.319 141.085H164.319C164.319 140.559 164.253 140.091 164.195 139.762L154.347 141.5ZM154.319 141.085C154.319 140.845 154.365 140.239 154.773 139.539L163.411 144.578C164.122 143.36 164.319 142.104 164.319 141.085H154.319ZM154.696 139.677C154.954 139.201 155.333 138.793 155.777 138.504L161.239 146.88C162.18 146.266 162.949 145.436 163.489 144.44L154.696 139.677ZM155.691 138.561C156.084 138.293 156.448 138.177 156.684 138.13L158.645 147.935C159.53 147.758 160.456 147.415 161.325 146.823L155.691 138.561ZM156.651 138.136C156.668 138.133 156.68 138.131 156.688 138.13C156.696 138.13 156.697 138.13 156.69 138.13V148.13C157.35 148.13 158.015 148.066 158.677 147.929L156.651 138.136ZM156.69 138.13C156.845 138.13 156.957 138.154 157.014 138.171L154.192 147.764C154.985 147.997 155.822 148.13 156.69 148.13V138.13ZM157.014 138.171C157.166 138.215 157.338 138.294 157.503 138.412L151.691 146.549C152.462 147.1 153.305 147.503 154.192 147.764L157.014 138.171ZM157.597 138.481C157.844 138.666 158.041 138.896 158.174 139.126L149.527 144.148C150.05 145.049 150.744 145.841 151.597 146.481L157.597 138.481ZM158.235 139.233C158.515 139.744 158.575 140.207 158.575 140.468H148.575C148.575 141.617 148.818 142.859 149.466 144.041L158.235 139.233ZM158.575 140.468V137.125H148.575V140.468H158.575ZM158.575 137.125C158.575 136.43 158.526 135.727 158.413 135.027L148.542 136.627C148.558 136.728 148.575 136.89 148.575 137.125H158.575ZM158.416 135.047C158.267 134.101 157.947 133.079 157.335 132.108L148.873 137.436C148.629 137.05 148.558 136.731 148.538 136.607L158.416 135.047ZM157.378 132.177C156.693 131.049 155.723 130.175 154.577 129.602L150.105 138.547C149.609 138.298 149.147 137.89 148.83 137.367L157.378 132.177ZM154.694 129.663C153.409 128.977 152.097 128.815 151.075 128.815V138.815C151.064 138.815 150.956 138.814 150.777 138.778C150.595 138.741 150.315 138.66 149.988 138.486L154.694 129.663ZM151.075 128.815H149.258V138.815H151.075V128.815ZM144.258 133.815V139.267H154.258V133.815H144.258ZM144.258 139.267C144.258 139.592 144.243 139.89 144.217 140.161L154.169 141.132C154.229 140.517 154.258 139.895 154.258 139.267H144.258ZM144.217 140.161C144.224 140.088 144.254 139.903 144.369 139.666L153.368 144.029C153.829 143.078 154.076 142.093 154.169 141.132L144.217 140.161ZM144.341 139.726C144.595 139.184 144.994 138.759 145.411 138.49L150.833 146.893C151.92 146.191 152.817 145.204 153.396 143.97L144.341 139.726ZM145.509 138.429C145.885 138.199 146.216 138.094 146.427 138.046C146.633 137.999 146.756 138 146.759 138V148C147.857 148 149.332 147.814 150.735 146.955L145.509 138.429ZM146.759 138C146.772 138 146.91 138 147.133 138.052C147.36 138.105 147.711 138.219 148.103 138.468L142.753 146.916C144.167 147.812 145.663 148 146.759 148V138ZM148.202 138.531C148.621 138.811 148.992 139.228 149.225 139.726L140.17 143.97C140.728 145.16 141.586 146.14 142.655 146.852L148.202 138.531ZM149.25 139.779C149.344 139.986 149.363 140.131 149.366 140.161L139.413 141.132C139.503 142.05 139.727 142.996 140.146 143.917L149.25 139.779ZM149.366 140.161C149.339 139.89 149.325 139.592 149.325 139.267H139.325C139.325 139.895 139.353 140.517 139.413 141.132L149.366 140.161ZM149.325 139.267V123.98H139.325V139.267H149.325Z" fill="#FDFBC6" mask="url(#path-1-outside-1_27_51148)"/>
</g>
<defs>
<filter id="filter0_d_27_51148" x="0.950233" y="0.773477" width="282.521" height="271.284" filterUnits="userSpaceOnUse" color-interpolation-filters="sRGB">
<feFlood flood-opacity="0" result="BackgroundImageFix"/>
<feColorMatrix in="SourceAlpha" type="matrix" values="0 0 0 0 0 0 0 0 0 0 0 0 0 0 0 0 0 0 127 0" result="hardAlpha"/>
<feOffset dy="4.77509"/>
<feGaussianBlur stdDeviation="62.0761"/>
<feComposite in2="hardAlpha" operator="out"/>
<feColorMatrix type="matrix" values="0 0 0 0 0.996078 0 0 0 0 0.866667 0 0 0 0 0.27451 0 0 0 1 0"/>
<feBlend mode="normal" in2="BackgroundImageFix" result="effect1_dropShadow_27_51148"/>
<feBlend mode="normal" in="SourceGraphic" in2="effect1_dropShadow_27_51148" result="shape"/>
</filter>
<linearGradient id="paint0_linear_27_51148" x1="142" y1="114" x2="142" y2="140" gradientUnits="userSpaceOnUse">
<stop stop-color="#FF6B00"/>
<stop offset="1" stop-color="#FCB500"/>
</linearGradient>
</defs>
</svg>
