<svg width="82" height="82" viewBox="0 0 82 82" fill="none" xmlns="http://www.w3.org/2000/svg">
<g clip-path="url(#clip0_14_107258)">
<path d="M46.1661 47.6099C43.1385 50.4802 17.8583 74.4413 11.9336 80.0569C9.22441 82.6242 4.86049 82.714 2.03316 79.8741C-0.641897 77.1462 -0.685172 72.8555 1.94982 70.0731C7.56745 64.1462 31.5273 38.8672 34.3968 35.8406C35.3313 34.8558 36.8885 34.8432 37.8428 35.7941C38.7674 36.7188 44.8232 42.7746 46.2125 44.1639C47.1741 45.1286 47.1415 46.6843 46.1661 47.6099Z" fill="#9D7552"/>
<path d="M46.2125 44.164C47.1741 45.1289 47.1414 46.6846 46.1661 47.61C43.1385 50.4803 17.8583 74.4414 11.9336 80.057C9.1744 82.6716 4.80551 82.6468 2.08285 79.9239C2.00623 79.8473 0.111893 81.7955 41.978 39.9294C42.6385 40.5898 45.2456 43.1969 46.2125 44.164Z" fill="#7D4A3B"/>
<path d="M60.947 33.5983C59.4793 34.9897 46.0298 47.7391 44.4671 49.2207L32.7859 37.5396C39.1811 30.7944 34.7341 35.4859 48.4068 21.0596C49.3298 20.0871 50.884 20.0478 51.8528 21.0132C57.5114 26.6718 55.2563 24.417 60.9935 30.1523C61.9472 31.1056 61.9302 32.6653 60.947 33.5983Z" fill="#F9F9F9"/>
<path d="M60.947 33.5983C59.4793 34.9897 46.0298 47.7391 44.4671 49.2207L38.5768 43.3305L56.3743 25.5347L60.9935 30.1523C61.9472 31.1057 61.9302 32.6653 60.947 33.5983Z" fill="#E2DFF4"/>
<path d="M81.9484 2.90483L78.3806 19.888C77.1433 25.985 72.9552 30.9793 67.1691 33.2585C65.0419 34.2091 62.651 34.6475 60.1008 34.3997C68.1054 11.3145 65.955 17.5172 70.2737 5.05898C73.4391 3.91298 75.7903 2.41982 78.0713 0.551929C78.8599 -0.0955996 79.9706 -0.172534 80.8425 0.356388C81.708 0.879379 82.1598 1.90212 81.9484 2.90483Z" fill="#BEE75E"/>
<path d="M81.9484 2.90477L78.3806 19.888C77.1432 25.985 72.9551 30.9793 67.169 33.2585C65.0418 34.2091 62.6509 34.6474 60.1007 34.3996L66.7844 15.1245L81.2447 0.664062C81.846 1.22825 82.1231 2.07612 81.9484 2.90477Z" fill="#00CB75"/>
<path d="M75.9602 36.7288C75.0326 35.8502 73.58 35.8502 72.6525 36.7288C71.2733 38.0359 66.7731 42.5796 66.7731 46.1673C66.7731 50.3211 70.1525 53.7005 74.3063 53.7005C78.4601 53.7005 81.8394 50.3211 81.8394 46.1673C81.8394 42.5796 77.3394 38.0359 75.9602 36.7288Z" fill="#00CB75"/>
<path d="M63.1379 50.8333C62.2103 49.9547 60.7577 49.9547 59.8302 50.8333C58.451 52.1404 53.9508 56.6841 53.9508 60.2718C53.9508 64.4256 57.3301 67.805 61.4839 67.805C65.6377 67.805 69.0171 64.4256 69.0171 60.2718C69.0171 56.6841 64.5171 52.1404 63.1379 50.8333Z" fill="#00CB75"/>
<path d="M75.9602 64.938C75.0326 64.0594 73.58 64.0594 72.6525 64.938C71.2733 66.2451 66.7731 70.7889 66.7731 74.3766C66.7731 78.5304 70.1525 81.9097 74.3063 81.9097C78.4601 81.9097 81.8394 78.5304 81.8394 74.3766C81.8394 70.7889 77.3394 66.2451 75.9602 64.938Z" fill="#00CB75"/>
<path d="M70.2739 5.05908C70.2739 8.25601 70.3101 9.64355 70.1264 11.7828C68.9628 25.3008 61.3559 33.1834 61.0065 33.5391C60.9248 33.6209 61.0761 33.4763 60.1009 34.3998C53.2881 33.7205 47.7221 27.9665 47.543 20.8867C47.3441 13.0397 53.6274 6.57853 61.4841 6.57853C64.4903 6.57853 67.3228 6.13616 70.2739 5.05908Z" fill="#FFE278"/>
<path d="M70.1262 11.7825C68.9626 25.3004 61.3558 33.1831 61.0063 33.5388C60.9246 33.6205 61.0759 33.4759 60.1008 34.3995C57.0797 34.0983 54.0034 32.7481 51.5931 30.314L70.1262 11.7825Z" fill="#FFC178"/>
</g>
<defs>
<clipPath id="clip0_14_107258">
<rect width="82" height="82" fill="white"/>
</clipPath>
</defs>
</svg>
