<svg width="92" height="92" viewBox="0 0 92 92" fill="none" xmlns="http://www.w3.org/2000/svg">
<g clip-path="url(#clip0_14_107325)">
<path d="M78.3438 10.9609H2.69531C1.20678 10.9609 0 12.1677 0 13.6562V89.3047C0 90.7932 1.20678 92 2.69531 92H78.3438C79.8323 92 81.0391 90.7932 81.0391 89.3047V13.6562C81.0391 12.1677 79.8323 10.9609 78.3438 10.9609Z" fill="#393D9D"/>
<path d="M81.0391 13.6562V89.3047C81.0391 90.7925 79.8316 92 78.3438 92H40.5195V10.9609H78.3438C79.8316 10.9609 81.0391 12.1684 81.0391 13.6562Z" fill="#182084"/>
<path d="M89.3047 0H13.6562C12.1677 0 10.9609 1.20678 10.9609 2.69531V78.3438C10.9609 79.8323 12.1677 81.0391 13.6562 81.0391H89.3047C90.7932 81.0391 92 79.8323 92 78.3438V2.69531C92 1.20678 90.7932 0 89.3047 0Z" fill="#EDF5FF"/>
<path d="M92 2.69531V78.3438C92 79.8316 90.7925 81.0391 89.3047 81.0391H51.4805V0H89.3047C90.7925 0 92 1.2075 92 2.69531Z" fill="#D5E8FE"/>
<path d="M86.6094 5.39062V65.4835L84.5065 65.8925C54.882 46.8742 29.0188 52.6819 18.6546 56.3777L16.3516 55.4623V5.39062H86.6094Z" fill="#4BB9EC"/>
<path d="M86.6094 5.39062V65.4835L84.507 65.8932C72.6441 58.278 61.383 54.643 51.4805 53.2594V5.39062H86.6094Z" fill="#0095FF"/>
<path d="M45.0926 21.7422C43.6041 21.7422 42.3973 22.949 42.3973 24.4375V28.0312C42.3973 30.5082 40.3821 32.5234 37.9051 32.5234H36.9258V19.9453C36.9258 18.4568 35.719 17.25 34.2305 17.25C32.742 17.25 31.5352 18.4568 31.5352 19.9453V41.5078H30.7176C28.2406 41.5078 26.2254 39.4926 26.2254 37.0156V33.4219C26.2254 31.9333 25.0186 30.7266 23.5301 30.7266C22.0416 30.7266 20.8348 31.9333 20.8348 33.4219V37.0156C20.8348 42.465 25.2682 46.8984 30.7176 46.8984H31.5352V56.8616C31.5352 58.3501 32.742 59.5569 34.2305 59.5569C35.719 59.5569 36.9258 58.3501 36.9258 56.8616V37.9141H37.9051C43.3545 37.9141 47.7879 33.4806 47.7879 28.0312V24.4375C47.7879 22.949 46.5811 21.7422 45.0926 21.7422Z" fill="#00ED89"/>
<path d="M86.6094 65.4834V75.6483H16.3516V55.4622C24.822 51.9799 53.5738 43.0818 86.6094 65.4834Z" fill="#FDBF00"/>
<path d="M86.6094 65.4835V75.6484H51.4805V51.4607C61.967 52.9269 73.9755 56.916 86.6094 65.4835Z" fill="#FF9100"/>
<path d="M67.4727 36.1172C73.3774 36.1172 78.1641 31.3305 78.1641 25.4258C78.1641 19.5211 73.3774 14.7344 67.4727 14.7344C61.568 14.7344 56.7812 19.5211 56.7812 25.4258C56.7812 31.3305 61.568 36.1172 67.4727 36.1172Z" fill="#FFDA2D"/>
</g>
<defs>
<clipPath id="clip0_14_107325">
<rect width="92" height="92" fill="white"/>
</clipPath>
</defs>
</svg>
