<svg width="26" height="26" viewBox="0 0 26 26" fill="none" xmlns="http://www.w3.org/2000/svg">
<g clip-path="url(#clip0_9_157345)">
<path d="M26 5.43223V18.3815C26 20.0618 24.2922 21.4283 22.1914 21.4283C21.1941 21.4283 20.2846 21.1201 19.6056 20.6168C18.8541 20.0598 18.3828 19.264 18.3828 18.3815C18.3828 17.4989 18.8541 16.7031 19.6056 16.1461C20.2846 15.6428 21.1941 15.3346 22.1914 15.3346C23.0521 15.3346 23.8382 15.5727 24.4766 15.9592V9.63438L19.6056 11.722L15.3359 13.5516V22.9518C15.3359 24.6321 13.6282 25.9986 11.5273 25.9986C9.42652 25.9986 7.71875 24.6321 7.71875 22.9518C7.71875 21.2714 9.42652 19.9049 11.5273 19.9049C12.3881 19.9049 13.1742 20.1431 13.8125 20.5295V10.0025C13.8125 9.69735 13.9938 9.42211 14.2736 9.30278L24.9377 4.73247C25.1743 4.62938 25.445 4.65579 25.6577 4.79645C25.872 4.93762 26 5.17629 26 5.43223Z" fill="#FF8FB8"/>
<path d="M12.1875 8.37766C12.1875 10.16 10.6183 11.7902 10.4355 11.9577C10.146 12.2624 9.65863 12.2624 9.36913 11.9577C9.06444 11.6682 9.06444 11.1807 9.36913 10.8913C9.71947 10.5257 10.664 9.36784 10.664 8.37766C10.664 6.74758 8.98827 4.37102 7.61713 2.74094V13.7097C7.61713 13.8315 7.60189 13.9839 7.58661 14.1362C7.43431 14.9589 6.88588 15.6749 6.09369 16.1471C5.46913 16.528 4.66166 16.7566 3.80853 16.7566C1.70619 16.7566 -6.10352e-05 15.3854 -6.10352e-05 13.7097C-6.10352e-05 12.0339 1.70619 10.6628 3.80853 10.6628C4.67689 10.6628 5.4539 10.9065 6.09369 11.2874V0.760473C6.09369 0.455786 6.2765 0.181567 6.56595 0.0596412C6.85541 -0.0622846 7.19051 0.0139889 7.38856 0.227219C7.8914 0.714719 12.1875 5.11751 12.1875 8.37766Z" fill="#979FEF"/>
<path d="M12.1875 8.37742C12.1875 10.1598 10.6183 11.7899 10.4355 11.9574C10.146 12.2621 9.65863 12.2621 9.36913 11.9574C9.06444 11.668 9.06444 11.1805 9.36913 10.891C9.71947 10.5254 10.664 9.3676 10.664 8.37742C10.664 6.74734 8.98827 4.37078 7.61713 2.7407V13.7094C7.61713 13.8313 7.60189 13.9837 7.58661 14.136C7.43431 14.9587 6.88588 15.6746 6.09369 16.1469V0.760229C6.09369 0.455542 6.2765 0.181323 6.56595 0.0593971C6.85541 -0.0625287 7.19051 0.0137447 7.38856 0.226975C7.8914 0.714475 12.1875 5.11726 12.1875 8.37742Z" fill="#6B77E8"/>
<path d="M25.6577 4.79645C25.445 4.65579 25.1743 4.62938 24.9377 4.73247L19.6056 7.01762V11.722L24.4766 9.63438V15.9592C23.8382 15.5727 23.0521 15.3346 22.1914 15.3346C21.1941 15.3346 20.2846 15.6428 19.6056 16.1461C18.8541 16.7031 18.3828 17.4989 18.3828 18.3815C18.3828 19.264 18.8541 20.0598 19.6056 20.6168C20.2846 21.1201 21.1941 21.4283 22.1914 21.4283C24.2922 21.4283 26 20.0618 26 18.3815V5.43223C26 5.17629 25.872 4.93762 25.6577 4.79645Z" fill="#FF5F96"/>
</g>
<defs>
<clipPath id="clip0_9_157345">
<rect width="26" height="26" fill="white"/>
</clipPath>
</defs>
</svg>
