<svg width="25" height="24" viewBox="0 0 25 24" fill="none" xmlns="http://www.w3.org/2000/svg">
<path fill-rule="evenodd" clip-rule="evenodd" d="M9.23118 10.6245C9.82218 10.6245 10.3022 10.1435 10.3022 9.55147C10.3022 8.96047 9.82218 8.48047 9.23118 8.48047C8.64018 8.48047 8.15918 8.96047 8.15918 9.55147C8.15918 10.1435 8.64018 10.6245 9.23118 10.6245Z" fill="white"/>
<path fill-rule="evenodd" clip-rule="evenodd" d="M9.23121 6.98058C10.6492 6.98058 11.8022 8.13358 11.8022 9.55158C11.8022 10.9706 10.6492 12.1246 9.23121 12.1246C7.81321 12.1246 6.65921 10.9706 6.65921 9.55158C6.65921 8.13358 7.81321 6.98058 9.23121 6.98058ZM14.5132 12.6756C15.7842 11.3786 17.8772 11.3436 19.1822 12.5946L21.5359 14.8454C21.7267 15.0279 22.0432 14.8926 22.0432 14.6286V8.28858C22.0432 4.98658 19.9212 2.76758 16.7642 2.76758H8.33021C5.16821 2.76758 3.04321 4.98658 3.04321 8.28858V16.2356C3.04321 18.6059 4.14033 20.4137 5.92803 21.247C6.03988 21.2991 6.17108 21.2719 6.25692 21.1832C7.16091 20.2496 12.1585 15.0892 14.5132 12.6756Z" fill="white"/>
<path fill-rule="evenodd" clip-rule="evenodd" d="M18.1453 13.6778C17.4293 12.9908 16.2823 13.0118 15.5863 13.7228L8.24013 21.2538C8.0631 21.4353 8.17716 21.7395 8.43018 21.7555C11.1872 21.9304 14.0077 21.7568 16.7643 21.7568C19.5063 21.7568 21.4597 20.0795 21.9274 17.4756C21.9447 17.3791 21.9111 17.2805 21.8402 17.2127L18.1453 13.6778Z" fill="white"/>
</svg>
