<svg width="25" height="24" viewBox="0 0 25 24" fill="none" xmlns="http://www.w3.org/2000/svg">
<g clip-path="url(#clip0_8_11580)">
<path fill-rule="evenodd" clip-rule="evenodd" d="M8.85376 14.5712C9.71376 13.9282 10.9527 13.3582 12.6807 13.2692C14.0207 13.1392 15.0417 12.6502 15.6817 11.8172C16.0547 11.3322 16.2657 10.7762 16.3807 10.2512C15.5997 10.8372 14.4527 11.3862 12.8007 11.5922C10.3198 11.9472 9.27976 13.3242 8.85376 14.5712Z" fill="white"/>
<path fill-rule="evenodd" clip-rule="evenodd" d="M16.8802 12.7198C15.9782 13.9028 14.6022 14.5908 12.7912 14.7648C9.58821 14.9308 8.57521 17.0818 8.53321 17.1738C8.41021 17.4458 8.14021 17.6158 7.84921 17.6158C7.81121 17.6158 7.77321 17.6138 7.73521 17.6078C7.40221 17.5568 7.14421 17.2928 7.10421 16.9588C6.85621 14.8948 7.68521 10.8048 12.5972 10.1068C12.6012 10.1058 12.6062 10.1048 12.6102 10.1048C15.7132 9.72079 16.4712 7.94879 16.5022 7.87379C16.6282 7.56579 16.9432 7.37479 17.2782 7.40779C17.6112 7.44379 17.8812 7.69179 17.9392 8.02079C17.9582 8.13079 18.3882 10.7428 16.8802 12.7198ZM16.7602 3.00879H8.32521C5.16621 3.00879 3.04321 5.23179 3.04321 8.53879V16.4788C3.04321 19.7858 5.16621 22.0088 8.32521 22.0088H16.7592C19.9202 22.0088 22.0432 19.7858 22.0432 16.4788V8.53879C22.0432 5.23179 19.9202 3.00879 16.7602 3.00879Z" fill="white"/>
</g>
<defs>
<clipPath id="clip0_8_11580">
<rect width="24" height="24" fill="white" transform="translate(0.543213)"/>
</clipPath>
</defs>
</svg>
