<svg width="25" height="24" viewBox="0 0 25 24" fill="none" xmlns="http://www.w3.org/2000/svg">
<g clip-path="url(#clip0_8_11589)">
<path d="M13.2603 2C14.0166 2 14.7013 2.42 15.0794 3.04C15.2634 3.34 15.386 3.71 15.3553 4.1C15.3349 4.4 15.4269 4.7 15.5904 4.98C16.1116 5.83 17.2664 6.15 18.1657 5.67C19.1775 5.09 20.4549 5.44 21.0374 6.43L21.7221 7.61C22.3149 8.6 21.9878 9.87 20.9659 10.44C20.0972 10.95 19.7906 12.08 20.3118 12.94C20.4754 13.21 20.6593 13.44 20.9455 13.58C21.3031 13.77 21.5791 14.07 21.7732 14.37C22.1514 14.99 22.1207 15.75 21.7528 16.42L21.0374 17.62C20.6593 18.26 19.9542 18.66 19.2286 18.66C18.8709 18.66 18.4723 18.56 18.1453 18.36C17.8796 18.19 17.573 18.13 17.246 18.13C16.2342 18.13 15.386 18.96 15.3553 19.95C15.3553 21.1 14.4151 22 13.2399 22H11.85C10.6646 22 9.72436 21.1 9.72436 19.95C9.70392 18.96 8.8557 18.13 7.84396 18.13C7.50671 18.13 7.20012 18.19 6.94464 18.36C6.61761 18.56 6.20883 18.66 5.86136 18.66C5.12555 18.66 4.4204 18.26 4.04228 17.62L3.33713 16.42C2.959 15.77 2.93856 14.99 3.31669 14.37C3.4802 14.07 3.78679 13.77 4.13425 13.58C4.4204 13.44 4.60435 13.21 4.77809 12.94C5.28906 12.08 4.98248 10.95 4.11381 10.44C3.10208 9.87 2.77505 8.6 3.35757 7.61L4.04228 6.43C4.63501 5.44 5.90224 5.09 6.9242 5.67C7.8133 6.15 8.96811 5.83 9.48931 4.98C9.65282 4.7 9.7448 4.4 9.72436 4.1C9.70392 3.71 9.81634 3.34 10.0105 3.04C10.3886 2.42 11.0733 2.02 11.8194 2H13.2603ZM12.5552 9.18C10.9507 9.18 9.65282 10.44 9.65282 12.01C9.65282 13.58 10.9507 14.83 12.5552 14.83C14.1597 14.83 15.4269 13.58 15.4269 12.01C15.4269 10.44 14.1597 9.18 12.5552 9.18Z" fill="white"/>
</g>
<defs>
<clipPath id="clip0_8_11589">
<rect width="24" height="24" fill="white" transform="translate(0.543213)"/>
</clipPath>
</defs>
</svg>
