<svg width="63" height="63" viewBox="0 0 63 63" fill="none" xmlns="http://www.w3.org/2000/svg">
<g clip-path="url(#clip0_10_9256)">
<path d="M40.5504 33.1206L59.1579 42.4957C61.3529 43.5751 62.1658 46.2818 60.9494 48.3887C59.7295 50.5017 56.9773 51.1411 54.9502 49.7837L37.5274 38.3567C37.5274 38.3567 36.936 37.1271 38.0629 35.1752C39.1899 33.2232 40.5504 33.1206 40.5504 33.1206Z" fill="#0052BE"/>
<path d="M40.5503 33.1208L59.1578 42.4959C61.3528 43.5752 62.1657 46.282 60.9493 48.3889L38.0628 35.1754C39.1898 33.2234 40.5503 33.1208 40.5503 33.1208Z" fill="#00429B"/>
<path d="M28.4542 27.025L40.5504 33.1207C39.494 34.9502 38.5837 36.527 37.5273 38.3567L26.2003 30.9289L28.4542 27.025Z" fill="#00429B"/>
<path d="M28.4541 27.0253L40.5503 33.1209L39.0388 35.7389L27.3272 28.9772L28.4541 27.0253Z" fill="#00337A"/>
<path d="M29.7316 16.7831L31.3919 22.9794L38.0548 25.5737C39.2908 26.0551 39.3304 27.7918 38.1213 28.3309L31.3946 31.3254L32.1646 38.6481C32.3025 39.9661 30.777 40.7982 29.7436 39.9692L24.1654 35.4962L17.9691 37.1564C16.7976 37.4704 15.7575 36.3263 16.1828 35.189L18.3373 29.4401L14.5942 23.1295C13.9994 22.1288 14.733 20.8591 15.8965 20.8738L23.2332 20.9601L27.1346 16.2198C27.9061 15.2839 29.4174 15.6102 29.7316 16.7831Z" fill="#FFDD54"/>
<path d="M27.1347 16.2197C27.9062 15.2838 29.4174 15.6101 29.7317 16.783L31.392 22.9793L38.0549 25.5736C39.2901 26.0547 39.3314 27.7914 38.1213 28.3308L31.3946 31.3253L14.5848 21.6202C14.8555 21.1527 15.3564 20.8669 15.8966 20.8737L23.2332 20.96L27.1347 16.2197Z" fill="#FFB454"/>
<path d="M3.75259 12.1943C4.54925 11.9809 5.36906 12.4542 5.58253 13.2509L5.81455 14.1168L6.68049 13.8848C7.47715 13.6713 8.29697 14.1446 8.51043 14.9413C8.7239 15.738 8.25058 16.5578 7.45392 16.7712L6.58798 17.0033L6.82001 17.8692C7.03347 18.6659 6.56015 19.4857 5.76349 19.6991C4.96683 19.9126 4.14701 19.4393 3.93355 18.6426L3.70152 17.7767L2.83558 18.0087C2.03892 18.2222 1.21911 17.7489 1.00564 16.9522C0.792177 16.1555 1.2655 15.3357 2.06216 15.1223L2.9281 14.8902L2.69607 14.0243C2.4826 13.2276 2.95583 12.4078 3.75259 12.1943Z" fill="#BEE75E"/>
<path d="M3.75259 12.1943C4.54925 11.9808 5.36906 12.4541 5.58253 13.2508L5.81456 14.1167L6.68049 13.8847C7.47716 13.6712 8.29697 14.1446 8.51044 14.9412C8.7239 15.7379 8.25058 16.5577 7.45392 16.7712L6.58798 17.0032L2.9281 14.8902L2.69607 14.0242C2.48261 13.2276 2.95583 12.4078 3.75259 12.1943Z" fill="#00CB75"/>
<path d="M8.48245 29.0765L8.71447 29.9425L7.84854 30.1745C7.05149 30.3881 6.57845 31.2074 6.79202 32.0044C7.00559 32.8015 7.82491 33.2745 8.62196 33.061L9.4879 32.8289L9.71992 33.6949C9.93349 34.4919 10.7528 34.965 11.5499 34.7514C12.3469 34.5378 12.82 33.7185 12.6064 32.9214L12.3744 32.0555L13.2403 31.8235C14.0373 31.6099 14.5104 30.7906 14.2968 29.9935C14.0832 29.1965 13.2639 28.7235 12.4669 28.937L11.6009 29.169L11.3689 28.3031C11.1553 27.5061 10.336 27.033 9.53896 27.2466C8.74192 27.4602 8.26888 28.2795 8.48245 29.0765Z" fill="#F6F9F9"/>
<path d="M23.3827 14.2561C24.1798 14.0425 24.6528 13.2232 24.4393 12.4262C24.2257 11.6291 23.4064 11.1561 22.6093 11.3696L21.7434 11.6017L21.5113 10.7357C21.2978 9.93868 20.4785 9.46564 19.6814 9.67921C18.8844 9.89278 18.4113 10.7121 18.6249 11.5092L18.8569 12.3751L17.991 12.6071C17.1939 12.8207 16.7209 13.64 16.9345 14.4371C17.148 15.2341 17.9674 15.7071 18.7644 15.4936L19.6303 15.2615L19.8624 16.1275C20.0759 16.9245 20.8953 17.3976 21.6923 17.184C22.4894 16.9704 22.9624 16.1511 22.7488 15.3541L22.5168 14.4881L23.3827 14.2561Z" fill="#E2DFF4"/>
<path d="M32.0416 6.16101L32.2736 7.02694L31.4077 7.25897C30.6106 7.47254 30.1376 8.29187 30.3512 9.08891C30.5647 9.88596 31.3841 10.359 32.1811 10.1454L33.0471 9.9134L33.2791 10.7793C33.4927 11.5764 34.312 12.0494 35.109 11.8359C35.9061 11.6223 36.3791 10.803 36.1655 10.0059L35.9335 9.13998L36.7995 8.90795C37.5965 8.69438 38.0695 7.87506 37.856 7.07801C37.6424 6.28096 36.8231 5.80793 36.026 6.02149L35.1601 6.25352L34.9281 5.38758C34.7145 4.59054 33.8952 4.1175 33.0981 4.33107C32.3011 4.54463 31.828 5.36396 32.0416 6.16101Z" fill="#FF4A4A"/>
<path d="M10.5592 43.37L10.7912 44.2359L9.9253 44.468C9.12826 44.6815 8.65522 45.5009 8.86879 46.2979C9.08235 47.0949 9.90168 47.568 10.6987 47.3544L11.5647 47.1224L11.7967 47.9883C12.0103 48.7854 12.8296 49.2584 13.6266 49.0448C14.4237 48.8313 14.8967 48.0119 14.6831 47.2149L14.4511 46.349L15.3171 46.1169C16.1141 45.9034 16.5871 45.084 16.3736 44.287C16.16 43.4899 15.3407 43.0169 14.5436 43.2305L13.6777 43.4625L13.4457 42.5966C13.2321 41.7995 12.4128 41.3265 11.6157 41.5401C10.8187 41.7536 10.3456 42.5729 10.5592 43.37Z" fill="#FF8659"/>
<path d="M20.9215 43.9507L19.2863 50.1637C19.0764 50.9615 19.553 51.7789 20.3509 51.989C21.149 52.199 21.9661 51.7223 22.1762 50.9244L23.8114 44.7113C24.0206 43.9169 23.5484 43.0971 22.7467 42.8861C21.9487 42.676 21.1316 43.1526 20.9215 43.9507Z" fill="#F6F9F9"/>
<path d="M26.4257 46.7352L28.8454 52.6867C29.1561 53.4512 30.0278 53.819 30.7921 53.5081C31.5564 53.1974 31.9246 52.3257 31.6135 51.5613L29.1938 45.6098C28.883 44.8453 28.0114 44.4775 27.247 44.7884C26.4826 45.0993 26.1139 45.9714 26.4257 46.7352Z" fill="#ACCEFF"/>
<path d="M37.0919 15.9428C36.5058 16.5238 36.5015 17.4698 37.0826 18.0558C37.6634 18.6418 38.6094 18.6461 39.1956 18.0652L43.7587 13.5425C44.1534 13.1512 44.2843 12.5943 44.15 12.0933C43.8582 11.0042 42.4784 10.6041 41.6551 11.4201L37.0919 15.9428Z" fill="#E2DFF4"/>
<path d="M40.9802 21.0021C41.093 21.8197 41.8476 22.3904 42.6649 22.2773L49.0289 21.3971C49.9164 21.2745 50.5009 20.4011 50.2671 19.5286C50.0749 18.8113 49.374 18.3327 48.6194 18.4372L42.2554 19.3174C41.4381 19.4303 40.8671 20.1846 40.9802 21.0021Z" fill="#6BA7FF"/>
</g>
<defs>
<clipPath id="clip0_10_9256">
<rect width="51" height="51" fill="white" transform="translate(13.1998 62.4619) rotate(-105)"/>
</clipPath>
</defs>
</svg>
