<svg width="69" height="69" viewBox="0 0 69 69" fill="none" xmlns="http://www.w3.org/2000/svg">
<g clip-path="url(#clip0_10_54738)">
<path d="M66.9785 17.3218H19.3433C18.2269 17.3218 17.3218 18.2269 17.3218 19.3433V66.9785C17.3218 68.0949 18.2269 68.9999 19.3433 68.9999H66.9785C68.0949 68.9999 69 68.0949 69 66.9785V19.3433C69 18.2269 68.0949 17.3218 66.9785 17.3218Z" fill="#FE907A"/>
<path d="M66.9785 17.3218H43.161V68.9999H66.9785C68.0949 68.9999 69 68.0949 69 66.9785V19.3433C69 18.2269 68.0949 17.3218 66.9785 17.3218Z" fill="#FC5B3D"/>
<path d="M58.3175 8.66089H10.6825C9.56607 8.66089 8.66098 9.56597 8.66098 10.6824V58.3176C8.66098 59.434 9.56607 60.3391 10.6825 60.3391H58.3177C59.4341 60.3391 60.3392 59.434 60.3392 58.3176V10.6824C60.339 9.56584 59.4341 8.66089 58.3175 8.66089Z" fill="#FFD680"/>
<path d="M58.3175 8.66089H34.5V60.3391H58.3175C59.4339 60.3391 60.339 59.434 60.339 58.3176V10.6824C60.339 9.56584 59.4341 8.66089 58.3175 8.66089Z" fill="#FFBB25"/>
<path d="M49.6567 0H2.02148C0.905086 0 0 0.905086 0 2.02148V44.489H47.3477C49.7394 44.489 51.6782 42.5501 51.6782 40.1585V2.02148C51.6782 0.905086 50.7731 0 49.6567 0Z" fill="#82D4FE"/>
<path d="M51.6782 40.1584V2.02148C51.6782 0.905086 50.7731 0 49.6567 0H25.839V44.489H47.3476C49.7393 44.489 51.6782 42.5501 51.6782 40.1584Z" fill="#38B1F2"/>
<path d="M25.1032 39.5664L16.4422 30.9054C16.0631 30.5263 15.549 30.3132 15.0129 30.3132C14.4768 30.3132 13.9627 30.5263 13.5836 30.9054L0 44.489V49.6567C0 50.7731 0.905086 51.6782 2.02148 51.6782H10.1326C13.7935 51.6782 17.3044 50.2239 19.893 47.6352L25.1032 42.425C25.8927 41.6357 25.8927 40.3558 25.1032 39.5664Z" fill="#733266"/>
<path d="M49.6567 51.6782H10.1326L35.2358 26.5748C35.6149 26.1957 36.1291 25.9827 36.6652 25.9827C37.2013 25.9827 37.7154 26.1957 38.0945 26.5748L51.6779 40.1584V49.6567C51.6782 50.7731 50.7731 51.6782 49.6567 51.6782Z" fill="#5A1A56"/>
<path d="M51.6782 49.6567V40.1585L38.0946 26.5748C37.7155 26.1957 37.2014 25.9827 36.6653 25.9827C36.1292 25.9827 35.6151 26.1957 35.236 26.5748L25.8392 35.9716V51.678H49.6567C50.7731 51.6782 51.6782 50.7731 51.6782 49.6567Z" fill="#410D4A"/>
<path d="M31.8561 23.2009C35.1818 19.8752 35.1818 14.4832 31.8561 11.1575C28.5305 7.83188 23.1385 7.83188 19.8128 11.1575C16.4872 14.4832 16.4872 19.8752 19.8128 23.2009C23.1385 26.5265 28.5305 26.5265 31.8561 23.2009Z" fill="#FFD680"/>
<path d="M34.3562 17.1781C34.3562 12.4816 30.5355 8.66089 25.839 8.66089V25.6953C30.5355 25.6953 34.3562 21.8744 34.3562 17.1781Z" fill="#FFBB25"/>
</g>
<defs>
<clipPath id="clip0_10_54738">
<rect width="69" height="69" fill="white"/>
</clipPath>
</defs>
</svg>
